<svg xmlns="http://www.w3.org/2000/svg" viewBox="0 0 64 64" role="img" aria-label="Booksy">
  <defs>
    <linearGradient id="grad" x1="0%" x2="100%" y1="0%" y2="100%">
      <stop offset="0%" stop-color="#d6b76b"/>
      <stop offset="100%" stop-color="#b58e3c"/>
    </linearGradient>
  </defs>
  <rect x="6" y="6" width="52" height="52" rx="12" fill="url(#grad)" opacity="0.18" stroke="#c19f55"/>
  <path fill="#b58e3c" d="M20 24c0-4 3.4-7 8.2-7 5.2 0 8.8 3 8.8 7.8 0 2.8-1.2 5-3.2 6.4 2.5 1.1 4.2 3.6 4.2 6.8 0 4.7-3.8 8-9.6 8-5.7 0-9.4-3.3-9.4-7.7 0-2.4 1-4.5 3-6l1.5 2.1c-1.2 0.9-1.9 2.2-1.9 3.8 0 3 2.3 5.2 6.6 5.2 4.3 0 6.8-2.1 6.8-5.5 0-3.1-2.1-5.1-5.6-5.1h-2.6v-2.5h2.4c3.1 0 5-1.9 5-4.7 0-2.7-2-4.7-5.2-4.7-3.1 0-5.4 1.9-5.4 4.5 0 1.1 0.4 2 1.2 2.9l-1.6 2.1C21 28.5 20 26.5 20 24z"/>
</svg>
